<?xml version="1.0" standalone="no"?>
<!DOCTYPE svg PUBLIC "-//W3C//DTD SVG 20010904//EN"
 "http://www.w3.org/TR/2001/REC-SVG-20010904/DTD/svg10.dtd">
<svg version="1.0" xmlns="http://www.w3.org/2000/svg"
 width="300.000000pt" height="300.000000pt" viewBox="0 0 300.000000 300.000000"
 preserveAspectRatio="xMidYMid meet">
<metadata>
Created by potrace 1.10, written by Peter Selinger 2001-2011
</metadata>
<g transform="translate(0.000000,300.000000) scale(0.100000,-0.100000)"
fill="#000000" stroke="none">
<path d="M1185 2731 c-100 -36 -218 -100 -295 -160 -62 -48 -190 -173 -190
-186 0 -7 3 -7 8 0 4 6 19 18 34 28 113 72 210 101 338 102 52 0 111 -3 131
-8 l37 -8 12 84 c14 102 11 161 -10 164 -8 1 -38 -6 -65 -16z m46 -43 c3 -32
-3 -86 -12 -113 l-9 -30 -139 0 c-89 0 -137 3 -134 10 6 16 84 62 175 105 88
41 117 48 119 28z"/>
<path d="M1774 2605 c-209 -38 -407 -127 -498 -224 -24 -25 -27 -31 -12 -31
10 0 30 9 44 20 73 55 123 90 131 90 5 0 21 -14 36 -32 26 -31 27 -32 7 -41
-47 -21 -55 -105 -8 -93 45 11 212 95 231 116 20 22 20 22 0 36 -24 18 -64 13
-128 -15 -63 -27 -72 -27 -96 8 l-21 28 58 26 c123 55 318 98 377 83 39 -10
30 -32 -32 -78 -32 -23 -92 -74 -134 -113 -42 -38 -130 -115 -196 -170 -66
-55 -116 -102 -112 -103 13 -5 295 233 359 303 28 30 79 60 87 51 9 -9 -53
-125 -102 -191 -70 -93 -135 -155 -190 -181 -27 -13 -57 -24 -66 -24 -8 0 -23
-6 -33 -13 -30 -22 82 -4 130 20 51 27 146 128 208 221 26 40 50 72 52 72 10
0 -63 -124 -111 -188 -33 -44 -73 -82 -117 -112 -37 -24 -66 -46 -63 -48 2 -2
24 5 49 16 49 22 119 88 168 159 65 95 165 353 154 398 -6 23 -11 25 -54 24
-26 -1 -79 -7 -118 -14z m-74 -174 c0 -4 -41 -26 -92 -47 -50 -21 -104 -49
-120 -62 -27 -23 -28 -23 -28 -3 0 26 30 46 133 88 85 34 107 39 107 24z"/>
<path d="M965 2471 c-165 -48 -293 -148 -387 -302 -54 -89 -71 -157 -65 -254
6 -104 40 -182 110 -253 85 -87 189 -129 349 -141 l89 -6 33 -85 c39 -106 72
-163 130 -226 l45 -49 7 33 c7 34 19 48 28 34 6 -10 -51 -220 -64 -237 -4 -5
-10 -25 -13 -43 -4 -18 -35 -106 -70 -195 -117 -297 -128 -328 -122 -337 4 -6
46 -10 95 -10 l88 0 53 58 c29 31 49 51 44 43 -5 -9 -4 -12 3 -7 6 4 9 12 6
19 -2 7 7 23 21 35 29 25 49 68 39 84 -4 6 -2 8 3 5 14 -9 24 18 16 40 -4 10
-2 14 5 9 13 -8 26 29 16 45 -4 7 -3 9 3 6 11 -7 38 71 29 81 -3 3 -1 11 5 18
6 8 9 20 6 28 -3 8 -1 28 5 44 l11 29 41 -23 c23 -13 60 -26 84 -30 40 -6 50
-13 36 -27 -6 -5 -25 -50 -132 -310 l-36 -87 -35 2 c-20 1 -58 0 -86 -1 -41
-1 -47 -4 -32 -12 12 -7 63 -9 145 -5 l127 6 55 59 c104 111 253 373 237 415
-8 20 -36 20 -65 0 -20 -14 -24 -13 -47 3 -17 12 -24 28 -25 49 0 33 35 124
48 124 4 0 16 -14 26 -30 23 -40 108 -107 172 -137 29 -13 83 -26 125 -31 l73
-7 16 -41 c39 -106 108 -267 150 -349 41 -82 48 -90 77 -93 27 -3 32 1 42 29
6 18 11 62 11 100 l0 67 -35 -9 c-50 -14 -68 -5 -87 43 -9 24 -27 73 -41 111
-18 46 -22 67 -14 67 7 0 28 -42 46 -92 42 -114 47 -121 80 -112 14 3 31 7 38
7 12 0 12 2 -11 122 -30 151 -84 310 -106 310 -10 0 -45 -47 -45 -61 0 -1 -18
1 -39 5 l-39 6 -18 90 c-10 50 -16 97 -14 105 5 15 -8 103 -21 148 -5 16 -2
22 10 22 9 0 16 5 16 10 0 6 25 9 58 8 l57 -1 -55 -7 -55 -7 50 0 c53 -1 127
13 90 17 -20 1 -20 1 0 9 11 5 22 4 23 0 7 -17 42 -9 42 9 0 9 13 23 28 30 44
19 162 121 162 139 0 14 3 14 12 5 10 -10 4 -21 -32 -54 -25 -22 -69 -56 -98
-76 -57 -38 -65 -58 -9 -23 90 55 178 148 171 178 -2 10 5 29 17 43 l20 25
-17 -35 c-9 -19 -11 -30 -4 -24 25 25 62 150 67 232 6 81 6 82 -18 81 -13 0
-60 -10 -104 -22 l-80 -22 -6 -65 c-7 -85 -49 -170 -109 -220 -25 -20 -51 -35
-58 -33 -7 3 -18 0 -25 -5 -53 -43 -248 -20 -328 38 -90 65 -215 66 -374 5
-84 -32 -112 -38 -176 -38 -56 -1 -84 4 -102 16 -25 16 -28 16 -74 -8 -44 -22
-49 -23 -61 -8 -11 15 -4 21 54 52 100 53 194 149 242 249 22 45 43 77 45 70
3 -7 6 6 6 30 1 42 1 42 -35 42 -19 0 -44 5 -55 10 -31 17 -22 -4 11 -23 17
-11 30 -27 30 -38 0 -43 -58 -147 -116 -205 -66 -67 -215 -168 -263 -179 -17
-3 -34 -11 -37 -17 -5 -8 1 -9 17 -4 62 18 89 19 89 3 0 -15 -10 -18 -94 -33
-34 -6 -38 -5 -33 10 4 9 3 16 -1 16 -4 1 -41 3 -82 5 -217 10 -354 86 -421
234 -44 97 -48 176 -15 275 23 67 83 177 105 190 3 2 -11 -30 -31 -72 -50
-101 -68 -179 -67 -277 l2 -80 8 96 c17 203 135 405 279 479 50 25 170 57 226
60 75 4 139 0 154 -10 12 -7 12 -11 -3 -28 -10 -11 -22 -36 -28 -56 -13 -46 8
-92 86 -191 79 -101 90 -127 89 -214 0 -48 2 -66 8 -51 18 48 7 179 -18 209
-61 74 -136 180 -141 199 -8 32 14 77 54 112 22 20 29 32 21 35 -92 30 -249
33 -343 6z m1729 -643 c-1 -40 -9 -74 -28 -111 -14 -30 -26 -61 -26 -70 0 -22
-1 -22 -65 14 l-55 31 19 27 c20 28 29 61 30 118 1 29 5 33 44 42 77 17 82 14
81 -51z m-137 -193 c23 -14 43 -30 43 -34 0 -14 -77 -79 -120 -101 -22 -11
-40 -25 -40 -31 0 -16 -20 1 -29 24 -22 58 -23 67 -6 67 25 0 72 40 86 71 6
16 14 29 17 29 3 0 25 -11 49 -25z m-816 -41 c-11 -14 -27 -49 -37 -77 -24
-75 -50 -123 -76 -141 -34 -24 -45 -20 -52 23 -4 27 -16 48 -41 70 -32 28 -42
31 -99 31 -72 0 -114 -22 -154 -80 -22 -32 -24 -42 -18 -112 4 -61 2 -77 -9
-82 -8 -3 -15 -1 -15 4 0 22 -3 26 -31 43 -16 11 -29 24 -29 31 0 6 -11 32
-25 57 l-24 47 41 6 c33 5 53 18 92 59 28 29 56 61 62 72 10 17 13 18 27 6 47
-38 218 -19 332 38 74 37 82 38 56 5z m248 -13 c25 -16 56 -32 68 -35 12 -4
35 -22 51 -41 31 -34 62 -55 83 -55 6 0 0 9 -15 21 -33 26 -34 49 -1 49 19 0
26 -7 31 -27 14 -65 28 -70 26 -10 -1 32 0 33 33 29 22 -3 45 2 60 12 25 17
26 17 45 -26 l19 -43 -77 -11 c-42 -6 -70 -13 -62 -14 15 -2 -32 -17 -62 -19
-10 0 -24 11 -32 27 -8 15 -15 23 -16 19 0 -5 -18 7 -40 26 -90 77 -223 71
-310 -15 -14 -14 -40 -28 -58 -31 -31 -6 -33 -5 -26 16 24 78 48 129 67 138
68 37 147 34 216 -10z m-679 -38 c0 -4 -23 -29 -52 -55 -76 -71 -121 -75 -141
-14 -11 33 -7 38 31 41 16 1 35 6 42 10 7 5 29 9 47 11 19 1 37 5 40 8 9 8 33
8 33 -1z m723 -45 c22 -7 63 -33 91 -59 45 -42 50 -50 39 -67 -8 -14 -9 -31
-1 -63 5 -24 8 -88 6 -141 -2 -53 0 -94 4 -92 5 3 13 -7 18 -23 6 -15 17 -40
26 -55 12 -22 12 -32 3 -49 -10 -20 -16 -21 -72 -15 -34 4 -75 14 -91 22 -16
8 -39 14 -51 14 -27 0 -84 41 -145 104 -24 25 -49 46 -56 46 -22 0 -54 95 -54
162 1 100 42 172 120 207 51 23 105 26 163 9z m-522 -31 c24 -16 39 -37 49
-69 8 -26 18 -49 22 -53 10 -11 66 23 89 54 18 24 25 27 52 22 18 -4 31 -11
30 -16 -1 -6 -7 -32 -14 -59 -6 -26 -9 -72 -5 -101 l6 -52 -57 -12 c-84 -17
-142 -15 -150 6 -6 15 -7 15 -14 -3 -20 -50 -16 -51 84 -39 51 7 102 15 114
19 13 4 25 1 33 -9 25 -30 -4 -39 -124 -39 l-114 -1 -7 -77 c-7 -79 -19 -99
-31 -53 -7 27 -48 65 -70 65 -7 0 -29 -14 -49 -31 -26 -23 -41 -30 -59 -25
l-24 6 20 40 c13 25 21 63 22 100 1 49 4 59 16 54 39 -17 118 -16 151 1 40 21
43 25 69 92 19 51 19 53 1 96 -10 24 -36 57 -57 75 -45 36 -33 43 17 9z m-10
-36 c43 -46 55 -87 39 -136 -12 -37 -65 -85 -93 -85 -28 0 -20 38 10 52 80 38
54 158 -34 158 -49 0 -83 -32 -83 -77 0 -44 15 -72 45 -83 15 -6 23 -16 22
-30 -2 -24 -18 -25 -56 -6 -41 22 -65 64 -65 116 0 80 51 129 133 130 39 0 49
-5 82 -39z m-27 -74 c15 -23 -8 -65 -39 -73 -60 -15 -90 76 -35 103 27 13 54
3 74 -30z m256 -317 c-14 -35 -18 -63 -14 -85 5 -28 2 -36 -20 -50 -19 -12
-30 -14 -39 -7 -7 6 -32 16 -57 22 -77 19 -85 30 -74 97 l9 58 90 7 c50 4 97
9 105 11 22 5 22 4 0 -53z m-298 -47 c34 -31 17 -83 -27 -83 -40 0 -57 39 -35
81 13 23 37 24 62 2z m939 -25 c20 -38 46 -155 38 -174 -4 -11 -8 -37 -9 -59
-1 -37 -2 -38 -11 -15 -6 14 -19 42 -30 64 -18 38 -18 39 1 64 26 32 26 84 0
107 -21 19 -26 35 -10 35 5 0 15 -10 21 -22z m-38 -40 c19 -25 19 -28 3 -52
-21 -32 -70 -36 -86 -7 -15 28 -12 57 6 76 22 22 53 15 77 -17z m-1003 8 c0
-7 9 -25 21 -40 27 -34 19 -71 -21 -94 -33 -19 -80 -106 -80 -148 0 -15 7 -35
16 -45 15 -17 15 -21 -6 -54 -24 -39 -18 -47 11 -12 28 33 25 -1 -3 -39 -32
-43 -50 -58 -71 -62 -16 -3 -17 0 -6 20 l12 23 -24 -21 c-30 -26 -82 -44 -99
-34 -9 6 -8 14 4 38 9 17 16 38 16 47 0 20 32 19 71 -1 17 -8 38 -13 47 -11
11 3 -6 15 -45 32 -47 21 -60 31 -53 40 6 7 21 43 34 81 13 38 33 89 46 113
31 61 59 151 53 167 -4 10 5 14 36 14 28 0 41 -4 41 -14z m438 -52 c26 -18 28
-41 5 -66 -22 -24 -48 -23 -67 3 -16 23 -12 47 12 67 20 15 23 15 50 -4z
m-318 -78 c0 -14 -29 -26 -92 -40 -21 -5 -30 -16 -46 -65 -11 -32 -17 -63 -13
-68 3 -6 21 -18 39 -27 18 -9 30 -21 27 -26 -10 -16 -84 28 -90 53 -4 13 3 49
15 81 18 47 28 60 56 72 18 8 44 14 58 14 14 0 28 5 31 10 9 14 15 12 15 -4z
m339 -43 c-29 -52 -102 -152 -111 -153 -14 0 -8 20 24 91 20 42 39 69 48 69 9
0 25 7 36 15 10 8 20 15 21 15 2 0 -7 -17 -18 -37z m-79 20 c0 -3 -19 -44 -42
-90 l-43 -84 30 -24 c16 -13 26 -27 22 -31 -9 -9 -56 23 -64 43 -6 16 75 193
89 193 4 0 8 -3 8 -7z m-361 -87 c-11 -20 -23 -36 -26 -36 -8 0 9 45 25 63 24
27 25 13 1 -27z m252 -128 c25 -32 24 -53 -7 -77 -33 -26 -64 -27 -64 -4 0 25
33 103 43 103 5 0 17 -10 28 -22z m808 -10 c5 -14 10 -17 15 -10 4 7 11 12 17
12 12 0 12 -87 0 -95 -14 -8 -40 34 -34 54 4 13 3 14 -6 1 -12 -17 -15 -15
-29 28 -10 29 -9 32 9 32 11 0 23 -9 28 -22z"/>
<path d="M1945 1410 c-64 -26 -92 -115 -57 -180 37 -69 135 -92 191 -45 54 46
60 114 16 182 -28 42 -101 64 -150 43z m89 -34 c41 -17 69 -71 60 -115 -20
-99 -174 -92 -190 9 -8 50 10 88 48 105 41 18 42 18 82 1z"/>
<path d="M1946 1341 c-46 -51 2 -140 68 -127 57 11 74 70 35 120 -25 32 -77
36 -103 7z m95 -33 c17 -32 2 -58 -35 -58 -55 0 -76 45 -35 73 25 18 56 11 70
-15z"/>
<path d="M1478 1134 c-5 -4 -8 -30 -7 -58 l1 -51 9 45 c10 49 8 76 -3 64z"/>
<path d="M1397 1364 c-24 -24 13 -72 42 -55 20 13 9 56 -14 59 -12 2 -24 0
-28 -4z"/>
<path d="M1392 981 c-18 -11 -11 -45 9 -49 9 -2 19 5 23 14 8 22 -14 46 -32
35z"/>
<path d="M2269 924 c-16 -20 0 -49 27 -49 22 0 31 30 14 50 -16 19 -24 19 -41
-1z"/>
<path d="M1717 856 c-3 -8 1 -20 10 -27 13 -11 17 -10 29 5 7 11 11 23 8 27
-8 14 -41 10 -47 -5z"/>
<path d="M2251 2282 c-2 -53 -4 -110 -5 -125 -1 -27 4 -30 54 -46 30 -10 69
-25 86 -34 42 -22 109 -98 121 -139 5 -18 15 -32 22 -30 83 18 188 47 194 52
9 8 -31 120 -61 169 -34 56 -138 157 -195 190 -47 27 -156 60 -197 61 -12 0
-16 -19 -19 -98z m93 53 c20 -8 37 -14 38 -13 8 6 148 -79 148 -91 0 -12 -58
-99 -86 -128 -7 -7 -16 -8 -25 -2 -11 7 -10 9 4 9 36 0 4 20 -66 41 -40 12
-73 23 -75 24 -3 3 20 175 23 175 2 0 19 -7 39 -15z m269 -191 c41 -57 80
-141 72 -155 -6 -9 -99 -39 -122 -39 -7 0 -18 12 -24 27 -17 44 -59 94 -72 86
-7 -4 -4 4 6 17 9 14 34 49 54 78 20 29 39 49 43 45 4 -4 23 -31 43 -59z"/>
<path d="M2143 2351 c-123 -42 -200 -145 -153 -204 21 -26 24 -27 128 -27
l107 0 2 125 c1 142 5 137 -84 106z m55 -70 c2 -13 -1 -28 -6 -33 -7 -7 -7
-18 0 -34 6 -13 9 -27 5 -30 -12 -12 -169 -26 -180 -15 -24 24 46 108 113 134
33 13 65 3 68 -22z"/>
<path d="M850 2332 c-21 -6 -50 -33 -50 -46 0 -6 7 0 16 12 15 22 54 29 88 16
25 -10 21 -70 -6 -88 -12 -9 -18 -16 -12 -16 35 0 60 74 35 104 -13 16 -49 25
-71 18z"/>
<path d="M895 2108 c-43 -16 -103 -61 -131 -100 -27 -36 -48 -103 -59 -183 -9
-68 1 -54 14 20 14 78 56 160 100 196 99 81 244 70 312 -24 37 -52 49 -97 44
-172 -4 -54 -3 -57 7 -25 5 19 8 62 5 96 -9 113 -89 192 -204 200 -32 2 -71
-1 -88 -8z"/>
<path d="M910 2054 c-57 -24 -97 -71 -110 -126 -21 -84 8 -155 83 -209 75 -54
186 -27 238 58 31 49 32 132 4 188 -40 79 -141 121 -215 89z m131 -47 c98 -65
91 -216 -14 -270 -100 -51 -216 55 -193 177 18 96 129 146 207 93z"/>
<path d="M1541 1879 c-18 -62 -73 -140 -150 -210 -36 -33 -55 -55 -42 -49 35
18 107 86 145 139 36 50 71 132 64 152 -2 6 -10 -8 -17 -32z"/>
<path d="M1048 1670 c-9 -6 -40 -14 -70 -20 l-53 -9 59 5 c51 4 135 33 96 33
-8 0 -22 -4 -32 -9z"/>
<path d="M1075 1369 c-2 -8 -9 -36 -15 -64 -13 -61 -78 -165 -102 -165 -20 0
-24 -15 -8 -25 6 -4 -14 -22 -45 -41 -131 -78 -210 -169 -249 -288 -17 -50
-18 -65 -8 -114 14 -67 40 -97 74 -88 31 8 44 20 111 99 66 79 75 103 53 145
-9 17 -16 39 -16 50 0 25 37 59 85 76 38 14 38 15 11 15 -37 1 -103 -36 -110
-63 -3 -12 -6 -34 -6 -49 0 -16 -9 -42 -21 -58 -22 -32 -20 -38 6 -13 22 23
33 8 15 -20 -33 -52 -96 -125 -117 -135 -33 -15 -55 22 -51 86 3 48 3 48 41
51 22 2 45 -3 54 -10 14 -11 15 -11 11 2 -2 8 -18 19 -34 24 -67 20 -67 15
-16 90 31 46 70 86 112 118 36 26 80 62 99 80 l34 32 18 -22 c9 -12 20 -40 24
-62 4 -22 11 -42 16 -46 11 -6 2 -24 -12 -24 -6 0 -8 4 -5 8 9 14 -109 -45
-123 -62 -14 -16 -13 -23 11 -88 l14 -37 76 70 c70 63 91 92 92 126 1 6 13 21
28 32 24 19 118 150 118 164 0 4 -22 27 -50 53 -27 26 -63 73 -80 106 -17 35
-32 55 -35 47z m73 -153 c47 -50 50 -61 21 -95 -27 -33 -45 -21 -70 44 -18 47
-18 95 -1 95 5 0 27 -20 50 -44z m-48 -78 c0 -5 -10 -8 -23 -8 -13 0 -28 -5
-34 -11 -8 -8 -17 -8 -33 1 l-23 12 26 22 c14 11 28 32 32 45 7 22 8 22 31
-15 13 -22 24 -42 24 -46z m10 -53 c26 -31 -13 -82 -44 -56 -16 14 -22 52 -9
64 11 12 40 8 53 -8z m-39 -152 c-5 -10 -38 -45 -72 -78 -34 -33 -56 -51 -48
-39 8 11 33 37 56 58 23 21 45 46 48 57 4 10 11 19 16 19 6 0 6 -6 0 -17z
m-62 -10 c-20 -25 -63 -63 -71 -63 -22 0 -3 28 35 52 51 32 53 33 36 11z"/>
<path d="M2584 679 c-10 -17 13 -36 27 -22 12 12 4 33 -11 33 -5 0 -12 -5 -16
-11z"/>
<path d="M2585 550 c-4 -7 -3 -16 3 -22 14 -14 47 -6 47 12 0 18 -40 26 -50
10z"/>
<path d="M532 478 c5 -15 37 -18 41 -3 1 6 -9 12 -22 13 -16 3 -22 -1 -19 -10z"/>
<path d="M590 474 c0 -9 7 -14 17 -12 25 5 28 28 4 28 -12 0 -21 -6 -21 -16z"/>
<path d="M1645 461 c-35 -16 0 -19 255 -26 135 -3 270 -8 300 -10 30 -2 66 -4
79 -4 43 -1 14 -13 -41 -17 -206 -15 -375 -21 -663 -23 -181 -1 -346 -6 -365
-11 -21 -5 95 -8 300 -9 380 -2 915 18 901 32 -5 5 -30 10 -55 11 -47 1 -66
16 -22 16 25 0 43 15 29 23 -5 3 -109 7 -233 11 -124 3 -279 8 -345 11 -66 3
-129 1 -140 -4z"/>
<path d="M725 440 c-158 -11 -235 -21 -235 -29 0 -9 87 -17 340 -31 253 -14
288 -12 166 10 -55 9 -108 15 -118 12 -10 -2 -18 0 -18 5 0 6 29 13 65 16 36
4 73 11 83 16 20 12 -122 12 -283 1z"/>
<path d="M2496 426 c4 -11 -2 -19 -17 -26 -18 -8 -1 -9 65 -6 135 8 139 27 8
41 -54 6 -61 5 -56 -9z"/>
</g>
</svg>
